<svg xmlns="http://www.w3.org/2000/svg" width="220" height="200" viewBox="110 0 210 200" font-family="ui-monospace,'SF Mono',Menlo,Consolas,monospace" font-size="14" font-weight="bold">
  <rect x="110" y="0" width="210" height="200" rx="8" fill="#0a0a0a"/>
  <g fill="#875fff">
    <text x="180" y="24">/</text>
    <rect x="190" y="12" width="30" height="16" fill="#5f00af"/>
    <text x="220" y="24">\</text>

    <text x="160" y="42">/</text>
    <text x="170" y="42">[</text>
    <rect x="180" y="30" width="50" height="16" fill="#5f00af"/>
    <text x="230" y="42">]</text>
    <text x="240" y="42">\</text>

    <text x="150" y="60">/</text>
    <text x="160" y="60">[</text>
    <rect x="170" y="48" width="70" height="16" fill="#5f00af"/>
    <text x="240" y="60">]</text>
    <text x="250" y="60">\</text>

    <rect x="140" y="64" width="100" height="18" fill="#d7afff"/>
    <text x="240" y="78">|</text>
    <text x="250" y="78">\</text>
    <text x="260" y="78">_</text>

    <text x="130" y="96">_</text>
    <rect x="150" y="82" width="20" height="18" fill="#d7afff"/>
    <rect x="180" y="82" width="10" height="18" fill="#d7afff"/>
    <rect x="200" y="82" width="30" height="18" fill="#d7afff"/>
    <text x="230" y="96">(</text>
    <rect x="240" y="84" width="20" height="16" fill="#5f00af"/>
    <text x="260" y="96">|</text>

    <text x="120" y="114">_</text>
    <text x="130" y="114">/</text>
    <rect x="140" y="100" width="70" height="18" fill="#d7afff"/>
    <text x="210" y="114">(</text>
    <rect x="220" y="102" width="20" height="16" fill="#5f00af"/>
    <text x="240" y="114">)</text>
    <rect x="250" y="102" width="10" height="16" fill="#5f00af"/>
    <text x="260" y="114">|</text>
    <text x="270" y="114">_</text>

    <text x="120" y="132">/</text>
    <rect x="130" y="120" width="10" height="16" fill="#5f00af"/>
    <rect x="140" y="118" width="70" height="18" fill="#d7afff"/>
    <text x="210" y="132">|</text>
    <rect x="220" y="120" width="20" height="16" fill="#5f00af"/>
    <text x="240" y="132">/</text>
    <rect x="250" y="120" width="20" height="16" fill="#5f00af"/>
    <text x="270" y="132">)</text>
    <text x="280" y="132">\</text>
    <text x="290" y="132">_</text>

    <text x="120" y="150">|</text>
    <rect x="130" y="138" width="20" height="16" fill="#5f00af"/>
    <text x="150" y="150">\</text>
    <rect x="160" y="138" width="40" height="16" fill="#5f00af"/>
    <text x="200" y="150">/</text>
    <rect x="210" y="138" width="20" height="16" fill="#5f00af"/>
    <text x="230" y="150">/</text>
    <text x="240" y="150">(</text>
    <rect x="250" y="138" width="40" height="16" fill="#5f00af"/>
    <text x="290" y="150">)</text>

    <text x="120" y="168">|</text>
    <rect x="130" y="156" width="30" height="16" fill="#5f00af"/>
    <text x="160" y="168">/</text>
    <text x="190" y="168">\</text>
    <rect x="200" y="156" width="20" height="16" fill="#5f00af"/>
    <text x="220" y="168">/</text>
    <text x="240" y="168">|</text>
    <rect x="250" y="156" width="40" height="16" fill="#5f00af"/>
    <text x="290" y="168">|</text>

    <rect x="130" y="172" width="40" height="18" fill="#d7afff"/>
    <rect x="190" y="172" width="40" height="18" fill="#d7afff"/>
    <text x="260" y="186">\</text>
    <text x="270" y="186">|</text>
    <text x="290" y="186">]</text>
  </g>
</svg>
